<svg xmlns="http://www.w3.org/2000/svg" viewBox="0 0 32 32" width="32" height="32">
  <defs></defs>
  <g transform="matrix(1,0,0,1,0,0)">
    <g>
      <g>
        <g transform="matrix(2,0,0,2,0,0)">
          <path d="M0,0L 16,0 L 16,16 L 0,16 L 0,0 Z" fill="#4c2e13" />
        </g>
        <g transform="matrix(2,0,0,2,0,0)">
          <g>
            <path d="M4,10L 6,10 L 6,11 L 4,11 L 4,10 Z" fill="#91623f" />
          </g>
          <g>
            <path d="M6,11L 7,11 L 7,12 L 6,12 L 6,11 Z" fill="#91623f" />
          </g>
          <g>
            <path d="M7,10L 8,10 L 8,11 L 7,11 L 7,10 Z" fill="#91623f" />
          </g>
          <g>
            <path d="M7,9L 8,9 L 8,10 L 7,10 L 7,9 Z" fill="#91623f" />
          </g>
          <g>
            <path d="M4,13L 5,13 L 5,15 L 4,15 L 4,13 Z" fill="#91623f" />
          </g>
          <g>
            <path d="M3,15L 4,15 L 4,16 L 3,16 L 3,15 Z" fill="#91623f" />
          </g>
          <g>
            <path d="M5,6L 7,6 L 7,7 L 5,7 L 5,6 Z" fill="#91623f" />
          </g>
          <g>
            <path d="M9,6L 11,6 L 11,7 L 9,7 L 9,6 Z" fill="#91623f" />
          </g>
          <g>
            <path d="M12,10L 14,10 L 14,11 L 12,11 L 12,10 Z" fill="#91623f" />
          </g>
          <g>
            <path d="M15,7L 16,7 L 16,8 L 15,8 L 15,7 Z" fill="#91623f" />
          </g>
          <g>
            <path d="M13,13L 16,13 L 16,14 L 13,14 L 13,13 Z" fill="#91623f" />
          </g>
          <g>
            <path d="M12,14L 13,14 L 13,15 L 12,15 L 12,14 Z" fill="#91623f" />
          </g>
          <g>
            <path d="M11,15L 12,15 L 12,16 L 11,16 L 11,15 Z" fill="#91623f" />
          </g>
          <g>
            <path d="M0,6L 1,6 L 1,8 L 0,8 L 0,6 Z" fill="#91623f" />
          </g>
        </g>
        <g transform="matrix(2,0,0,2,0,0)">
          <path d="" fill="none" />
        </g>
        <g transform="matrix(2,0,0,2,0,0)">
          <g>
            <path d="M1,5L 2,5 L 2,7 L 1,7 L 1,5 Z" fill="#3d200a" />
          </g>
          <g>
            <path d="M0,0L 16,0 L 16,4 L 0,4 L 0,0 Z" fill="#3d200a" />
          </g>
          <g>
            <path d="M8,4L 11,4 L 11,5 L 8,5 L 8,4 Z" fill="#3d200a" />
          </g>
          <g>
            <path d="M6,5L 8,5 L 8,6 L 6,6 L 6,5 Z" fill="#3d200a" />
          </g>
          <g>
            <path d="M11,5L 12,5 L 12,6 L 11,6 L 11,5 Z" fill="#3d200a" />
          </g>
          <g>
            <path d="M13,4L 14,4 L 14,5 L 13,5 L 13,4 Z" fill="#3d200a" />
          </g>
          <g>
            <path d="M13,8L 14,8 L 14,9 L 13,9 L 13,8 Z" fill="#3d200a" />
          </g>
          <g>
            <path d="M1,11L 2,11 L 2,12 L 1,12 L 1,11 Z" fill="#3d200a" />
          </g>
          <g>
            <path d="M4,15L 5,15 L 5,16 L 4,16 L 4,15 Z" fill="#3d200a" />
          </g>
          <g>
            <path d="M6,14L 7,14 L 7,15 L 6,15 L 6,14 Z" fill="#3d200a" />
          </g>
          <g>
            <path d="M8,15L 10,15 L 10,16 L 8,16 L 8,15 Z" fill="#3d200a" />
          </g>
          <g>
            <path d="M14,14L 15,14 L 15,15 L 14,15 L 14,14 Z" fill="#3d200a" />
          </g>
          <g>
            <path d="M15,11L 16,11 L 16,12 L 15,12 L 15,11 Z" fill="#3d200a" />
          </g>
          <g>
            <path d="M9,10L 10,10 L 10,11 L 9,11 L 9,10 Z" fill="#3d200a" />
          </g>
          <g>
            <path d="M6,8L 7,8 L 7,9 L 6,9 L 6,8 Z" fill="#3d200a" />
          </g>
          <g>
            <path d="M5,9L 6,9 L 6,10 L 5,10 L 5,9 Z" fill="#3d200a" />
          </g>
          <g>
            <path d="M0,15L 1,15 L 1,16 L 0,16 L 0,15 Z" fill="#3d200a" />
          </g>
        </g>
        <g transform="matrix(2,0,0,2,0,0)">
          <g>
            <path d="M0,8L 2,8 L 2,11 L 0,11 L 0,8 Z" fill="#663e21" />
          </g>
          <g>
            <path d="M0,11L 1,11 L 1,13 L 0,13 L 0,11 Z" fill="#663e21" />
          </g>
          <g>
            <path d="M1,14L 2,14 L 2,15 L 1,15 L 1,14 Z" fill="#663e21" />
          </g>
          <g>
            <path d="M2,13L 3,13 L 3,14 L 2,14 L 2,13 Z" fill="#663e21" />
          </g>
          <g>
            <path d="M3,12L 4,12 L 4,13 L 3,13 L 3,12 Z" fill="#663e21" />
          </g>
          <g>
            <path d="M4,12L 5,12 L 5,13 L 4,13 L 4,12 Z" fill="#663e21" />
          </g>
          <g>
            <path d="M5,13L 7,13 L 7,14 L 5,14 L 5,13 Z" fill="#663e21" />
          </g>
          <g>
            <path d="M4,7L 5,7 L 5,10 L 4,10 L 4,7 Z" fill="#663e21" />
          </g>
          <g>
            <path d="M3,7L 4,7 L 4,8 L 3,8 L 3,7 Z" fill="#663e21" />
          </g>
          <g>
            <path d="M2,8L 3,8 L 3,9 L 2,9 L 2,8 Z" fill="#663e21" />
          </g>
          <g>
            <path d="M2,5L 4,5 L 4,6 L 2,6 L 2,5 Z" fill="#663e21" />
          </g>
          <g>
            <path d="M2,4L 3,4 L 3,5 L 2,5 L 2,4 Z" fill="#663e21" />
          </g>
          <g>
            <path d="M7,8L 10,8 L 10,9 L 7,9 L 7,8 Z" fill="#663e21" />
          </g>
          <g>
            <path d="M10,9L 11,9 L 11,10 L 10,10 L 10,9 Z" fill="#663e21" />
          </g>
          <g>
            <path d="M9,7L 10,7 L 10,8 L 9,8 L 9,7 Z" fill="#663e21" />
          </g>
          <g>
            <path d="M13,11L 14,11 L 14,13 L 13,13 L 13,11 Z" fill="#663e21" />
          </g>
          <g>
            <path d="M12,12L 13,12 L 13,14 L 12,14 L 12,12 Z" fill="#663e21" />
          </g>
          <g>
            <path d="M10,14L 12,14 L 12,15 L 10,15 L 10,14 Z" fill="#663e21" />
          </g>
          <g>
            <path d="M9,13L 10,13 L 10,14 L 9,14 L 9,13 Z" fill="#663e21" />
          </g>
          <g>
            <path d="M8,14L 10,14 L 10,15 L 8,15 L 8,14 Z" fill="#663e21" />
          </g>
          <g>
            <path d="M9,12L 11,12 L 11,13 L 9,13 L 9,12 Z" fill="#663e21" />
          </g>
          <g>
            <path d="M10,10L 11,10 L 11,12 L 10,12 L 10,10 Z" fill="#663e21" />
          </g>
          <g>
            <path d="M6,12L 9,12 L 9,13 L 6,13 L 6,12 Z" fill="#663e21" />
          </g>
          <g>
            <path d="M11,7L 13,7 L 13,8 L 11,8 L 11,7 Z" fill="#663e21" />
          </g>
          <g>
            <path d="M13,6L 15,6 L 15,8 L 13,8 L 13,6 Z" fill="#663e21" />
          </g>
          <g>
            <path d="M14,8L 15,8 L 15,9 L 14,9 L 14,8 Z" fill="#663e21" />
          </g>
          <g>
            <path d="M8,5L 9,5 L 9,7 L 8,7 L 8,5 Z" fill="#663e21" />
          </g>
          <g>
            <path d="M9,5L 10,5 L 10,6 L 9,6 L 9,5 Z" fill="#663e21" />
          </g>
          <g>
            <path d="M15,9L 16,9 L 16,11 L 15,11 L 15,9 Z" fill="#663e21" />
          </g>
          <g>
            <path d="M14,10L 15,10 L 15,11 L 14,11 L 14,10 Z" fill="#663e21" />
          </g>
        </g>
      </g>
      <g>
        <g transform="matrix(2,0,0,2,0,0)">
          <path d="M0,0L 16,0 L 16,1 L 0,1 L 0,0 Z" fill="#54ab3f" />
        </g>
        <g transform="matrix(2,0,0,2,0,0)">
          <path d="M0,1L 5,1 L 5,2 L 0,2 L 0,1 Z" fill="#54ab3f" />
        </g>
        <g transform="matrix(2,0,0,2,0,0)">
          <path d="M6,1L 16,1 L 16,2 L 6,2 L 6,1 Z" fill="#54ab3f" />
        </g>
        <g transform="matrix(2,0,0,2,0,0)">
          <path d="M6,2L 7,2 L 7,3 L 6,3 L 6,2 Z" fill="#64b351" />
        </g>
        <g transform="matrix(2,0,0,2,0,0)">
          <path d="M8,2L 12,2 L 12,3 L 8,3 L 8,2 Z" fill="#54ab3f" />
        </g>
        <g transform="matrix(2,0,0,2,0,0)">
          <path d="M13,2L 15,2 L 15,3 L 13,3 L 13,2 Z" fill="#64b84d" />
        </g>
        <g transform="matrix(2,0,0,2,0,0)">
          <path d="M8,3L 9,3 L 9,4 L 8,4 L 8,3 Z" fill="#54ab3f" />
        </g>
        <g transform="matrix(2,0,0,2,0,0)">
          <path d="M10,3L 11,3 L 11,4 L 10,4 L 10,3 Z" fill="#54ab3f" />
        </g>
        <g transform="matrix(2,0,0,2,0,0)">
          <path d="M2,2L 5,2 L 5,3 L 2,3 L 2,2 Z" fill="#54ab3f" />
        </g>
        <g transform="matrix(2,0,0,2,0,0)">
          <path d="M4,3L 5,3 L 5,4 L 4,4 L 4,3 Z" fill="#54ab3f" />
        </g>
        <g transform="matrix(2,0,0,2,0,0)">
          <path d="M0,2L 1,2 L 1,3 L 0,3 L 0,2 Z" fill="#64b351" />
        </g>
        <g transform="matrix(2,0,0,2,0,0)">
          <path d="M11,1L 13,1 L 13,2 L 11,2 L 11,1 Z" fill="#64b351" />
        </g>
        <g transform="matrix(2,0,0,2,0,0)">
          <path d="M1,1L 2,1 L 2,2 L 1,2 L 1,1 Z" fill="#5f993e" />
        </g>
        <g transform="matrix(2,0,0,2,0,0)">
          <path d="M4,2L 5,2 L 5,3 L 4,3 L 4,2 Z" fill="#5f993e" />
        </g>
        <g transform="matrix(2,0,0,2,0,0)">
          <path d="M7,0L 8,0 L 8,1 L 7,1 L 7,0 Z" fill="#5f993e" />
        </g>
        <g transform="matrix(2,0,0,2,0,0)">
          <path d="M9,1L 10,1 L 10,2 L 9,2 L 9,1 Z" fill="#5f993e" />
        </g>
        <g transform="matrix(2,0,0,2,0,0)">
          <path d="M10,0L 11,0 L 11,1 L 10,1 L 10,0 Z" fill="#5f993e" />
        </g>
        <g transform="matrix(2,0,0,2,0,0)">
          <path d="M13,0L 14,0 L 14,2 L 13,2 L 13,0 Z" fill="#5f993e" />
        </g>
        <g transform="matrix(2,0,0,2,0,0)">
          <path d="M14,1L 15,1 L 15,2 L 14,2 L 14,1 Z" fill="#5f993e" />
        </g>
        <g transform="matrix(2,0,0,2,0,0)">
          <path d="M8,3L 9,3 L 9,4 L 8,4 L 8,3 Z" fill="#5f993e" />
        </g>
        <g transform="matrix(2,0,0,2,0,0)">
          <path d="M15,0L 16,0 L 16,1 L 15,1 L 15,0 Z" fill="#427f29" />
        </g>
        <g transform="matrix(2,0,0,2,0,0)">
          <path d="M8,1L 9,1 L 9,2 L 8,2 L 8,1 Z" fill="#427f29" />
        </g>
        <g transform="matrix(2,0,0,2,0,0)">
          <path d="M3,0L 4,0 L 4,1 L 3,1 L 3,0 Z" fill="#427f29" />
        </g>
        <g transform="matrix(2,0,0,2,0,0)">
          <path d="M2,2L 3,2 L 3,3 L 2,3 L 2,2 Z" fill="#427f29" />
        </g>
        <g transform="matrix(2,0,0,2,0,0)">
          <path d="M-0,0L 2,0 L 2,1 L -0,1 L -0,0 Z" fill="#74ba45" />
        </g>
        <g transform="matrix(2,0,0,2,0,0)">
          <path d="M2,1L 3,1 L 3,2 L 2,2 L 2,1 Z" fill="#74ba45" />
        </g>
        <g transform="matrix(2,0,0,2,0,0)">
          <path d="M7,1L 8,1 L 8,2 L 7,2 L 7,1 Z" fill="#74ba45" />
        </g>
        <g transform="matrix(2,0,0,2,0,0)">
          <path d="M8,2L 9,2 L 9,3 L 8,3 L 8,2 Z" fill="#74ba45" />
        </g>
        <g transform="matrix(2,0,0,2,0,0)">
          <path d="M3,1L 4,1 L 4,2 L 3,2 L 3,1 Z" fill="#71af47" />
        </g>
        <g transform="matrix(2,0,0,2,0,0)">
          <path d="M9,-0L 10,-0 L 10,1 L 9,1 L 9,-0 Z" fill="#71af47" />
        </g>
        <g transform="matrix(2,0,0,2,0,0)">
          <path d="M9,2L 10,2 L 10,3 L 9,3 L 9,2 Z" fill="#71af47" />
        </g>
        <g transform="matrix(2,0,0,2,0,0)">
          <path d="M12,-0L 13,-0 L 13,1 L 12,1 L 12,-0 Z" fill="#71af47" />
        </g>
        <g transform="matrix(2,0,0,2,0,0)">
          <path d="M5,-0L 6,-0 L 6,1 L 5,1 L 5,-0 Z" fill="#71af47" />
        </g>
        <g transform="matrix(2,0,0,2,0,0)">
          <path d="M6,1L 7,1 L 7,2 L 6,2 L 6,1 Z" fill="#71af47" />
        </g>
      </g>
      <g>
        <g>
          <path
            d="M20,24C20,24 21,24 21,24 C21,24 21,25 21,25 C21,25 22,25 22,25 C22,25 22,26 22,26 C22,26 24,26 24,26 C24,26 24,25 24,25 C24,25 25,25 25,25 C25,25 25,24 25,24 C25,24 26,24 26,24 C26,24 26,30 26,30 C26,30 29,30 29,30 C29,30 29,21 29,21 C29,21 26,21 26,21 C26,21 26,22 26,22 C26,22 25,22 25,22 C25,22 25,23 25,23 C25,23 24,23 24,23 C24,23 24,24 24,24 C24,24 22,24 22,24 C22,24 22,23 22,23 C22,23 21,23 21,23 C21,23 21,22 21,22 C21,22 20,22 20,22 C20,22 20,21 20,21 C20,21 17,21 17,21 C17,21 17,30 17,30 C17,30 20,30 20,30 C20,30 20,24 20,24 L 20,24 Z"
            fill="#61c75e" />
        </g>
        <g>
          <path
            d="M6,24C6,24 7,24 7,24 C7,24 7,25 7,25 C7,25 8,25 8,25 C8,25 8,26 8,26 C8,26 10,26 10,26 C10,26 10,25 10,25 C10,25 11,25 11,25 C11,25 11,24 11,24 C11,24 12,24 12,24 C12,24 12,30 12,30 C12,30 15,30 15,30 C15,30 15,21 15,21 C15,21 12,21 12,21 C12,21 12,22 12,22 C12,22 11,22 11,22 C11,22 11,23 11,23 C11,23 10,23 10,23 C10,23 10,24 10,24 C10,24 8,24 8,24 C8,24 8,23 8,23 C8,23 7,23 7,23 C7,23 7,22 7,22 C7,22 6,22 6,22 C6,22 6,21 6,21 C6,21 3,21 3,21 C3,21 3,30 3,30 C3,30 6,30 6,30 C6,30 6,24 6,24 L 6,24 Z"
            fill="#54c750" />
        </g>
        <g>
          <path
            d="M20,11C20,11 18,11 18,11 C18,11 18,12 18,12 C18,12 17,12 17,12 C17,12 17,17 17,17 C17,17 18,17 18,17 C18,17 18,18 18,18 C18,18 20,18 20,18 C20,18 20,19 20,19 C20,19 29,19 29,19 C29,19 29,17 29,17 C29,17 20,17 20,17 C20,17 20,12 20,12 C20,12 29,12 29,12 C29,12 29,10 29,10 C29,10 20,10 20,10 C20,10 20,11 20,11 L 20,11 Z"
            fill="#54c750" />
        </g>
        <g>
          <path
            d="M6,13C6,13 7,13 7,13 C7,13 7,14 7,14 C7,14 8,14 8,14 C8,14 8,15 8,15 C8,15 10,15 10,15 C10,15 10,14 10,14 C10,14 11,14 11,14 C11,14 11,13 11,13 C11,13 12,13 12,13 C12,13 12,19 12,19 C12,19 15,19 15,19 C15,19 15,10 15,10 C15,10 12,10 12,10 C12,10 12,11 12,11 C12,11 11,11 11,11 C11,11 11,12 11,12 C11,12 10,12 10,12 C10,12 10,13 10,13 C10,13 8,13 8,13 C8,13 8,12 8,12 C8,12 7,12 7,12 C7,12 7,11 7,11 C7,11 6,11 6,11 C6,11 6,10 6,10 C6,10 3,10 3,10 C3,10 3,19 3,19 C3,19 6,19 6,19 C6,19 6,13 6,13 L 6,13 Z"
            fill="#61c75e" />
        </g>
      </g>
    </g>
  </g>
</svg>
